<?xml version="1.0" encoding="utf-8"?>
<!-- Generator: Adobe Illustrator 17.0.2, SVG Export Plug-In . SVG Version: 6.00 Build 0)  -->
<!DOCTYPE svg PUBLIC "-//W3C//DTD SVG 1.1//EN" "http://www.w3.org/Graphics/SVG/1.1/DTD/svg11.dtd">
<svg version="1.1" id="Calque_1" xmlns="http://www.w3.org/2000/svg" xmlns:xlink="http://www.w3.org/1999/xlink" x="0px" y="0px"
	 width="80px" height="110px" viewBox="0 0 80 110" enable-background="new 0 0 80 110" xml:space="preserve">
<circle fill="#FFFFFF" cx="40" cy="70" r="40"/>
<path fill="#FFFFFF" d="M40,20c8.075,0,15.585,2.401,21.872,6.516C52.575,11.87,42.654,0,40,0S27.425,11.87,18.128,26.516
	C24.415,22.401,31.925,20,40,20z"/>
<g>
	<g>
		<path d="M34.577,55h-3.899c-0.715,0-1.349,0.315-1.793,0.807h-3.787h-3.788C20.869,55.315,20.234,55,19.52,55h-3.899
			c-1.337,0-2.42,1.084-2.42,2.42c0,1.337,1.083,2.42,2.42,2.42h3.899c0.714,0,1.349-0.315,1.792-0.807h2.174v9.276
			c-3.317,0.739-5.807,3.701-5.807,7.238v5.86c0,0.891,0.723,1.613,1.613,1.613h3.074v2.635c0,1.506,1.226,2.734,2.733,2.734
			c1.507,0,2.735-1.227,2.735-2.734V83.02h3.074c0.891,0,1.613-0.723,1.613-1.613v-5.86c0-3.537-2.489-6.499-5.807-7.238v-9.276
			h2.174c0.443,0.491,1.078,0.807,1.792,0.807h3.899c1.337,0,2.42-1.083,2.42-2.42C36.998,56.083,35.913,55,34.577,55z
			 M29.291,75.547v4.247h-1.462v-4.247c0-1.507-1.226-2.736-2.733-2.736c-1.507,0-2.733,1.227-2.733,2.736v4.247h-1.46v-4.247
			c0-2.312,1.881-4.194,4.193-4.194S29.291,73.235,29.291,75.547z"/>
	</g>
</g>
<g>
	<g>
		<path d="M64.376,55h-3.899c-0.715,0-1.349,0.315-1.793,0.807h-3.787h-3.788C50.668,55.315,50.033,55,49.319,55H45.42
			C44.083,55,43,56.084,43,57.42c0,1.337,1.083,2.42,2.42,2.42h3.899c0.714,0,1.349-0.315,1.792-0.807h2.174v9.276
			c-3.317,0.739-5.807,3.701-5.807,7.238v5.86c0,0.891,0.723,1.613,1.613,1.613h3.074v2.635c0,1.506,1.226,2.734,2.733,2.734
			c1.507,0,2.735-1.227,2.735-2.734V83.02h3.074c0.891,0,1.613-0.723,1.613-1.613v-5.86c0-3.537-2.489-6.499-5.807-7.238v-9.276
			h2.174c0.443,0.491,1.078,0.807,1.792,0.807h3.899c1.337,0,2.42-1.083,2.42-2.42C66.796,56.083,65.712,55,64.376,55z
			 M59.09,75.547v4.247h-1.462v-4.247c0-1.507-1.226-2.736-2.733-2.736s-2.733,1.227-2.733,2.736v4.247h-1.46v-4.247
			c0-2.312,1.881-4.194,4.193-4.194S59.09,73.235,59.09,75.547z"/>
	</g>
</g>
</svg>
